<svg xmlns="http://www.w3.org/2000/svg" version="1.1" xmlns:xlink="http://www.w3.org/1999/xlink" xmlns:svgjs="http://svgjs.dev/svgjs" width="1000" height="1000" viewBox="0 0 1000 1000"><rect width="1000" height="1000" fill="#ffffff"></rect><g transform="matrix(0.7,0,0,0.7,149.57575757575756,282.1265587044535)"><svg viewBox="0 0 396 247" data-background-color="#c8c8c8" preserveAspectRatio="xMidYMid meet" height="623" width="1000" xmlns="http://www.w3.org/2000/svg" xmlns:xlink="http://www.w3.org/1999/xlink"><g id="tight-bounds" transform="matrix(1,0,0,1,0.2400000000000091,-0.09999999999999432)"><svg viewBox="0 0 395.52 247.2" height="247.2" width="395.52"><g><svg></svg></g><g><svg viewBox="0 0 395.52 247.2" height="247.2" width="395.52"><g><g><path xmlns="http://www.w3.org/2000/svg" d="M56.001 198.967h-55.001v-3.682l19.561-9.435 1.129-29.352 15.103 0-0.813 29.582 20.021 9.205zM25.394 60.2l-20.252-9.436v-3.682h57.072l18.855 43.62h-36.295l-5.803-13.473-0.37 13.473-14.381 0zM154.266 47.082h55.231v3.682l-20.022 7.134 1.003 32.804-32.927 0-0.294-13.933-5.926 13.933-15.733 0zM193.388 185.85l17.489 9.435v3.682h-69.729v-3.682l18.411-9.205-0.623-29.582 33.554 0zM104.788 200.118h-12.887l-18.788-43.62 50.23 0zM230.438 198.967v-3.682l19.561-9.435 0-29.352 34.75 0v29.812h17.95c17.797 0 31.528-5.723 41.193-17.168 3.207-3.787 5.882-8.002 8.025-12.644h32.508c-3.944 7.116-8.864 13.448-14.759 18.996-7.824 7.364-17.03 13.117-27.615 17.26-10.586 4.142-22.169 6.213-34.75 6.213zM249.999 60.2l-19.561-9.436v-3.682h78.474c18.257 0 33.752 2.992 46.486 8.975 12.734 5.983 22.445 14.191 29.134 24.624 2.048 3.21 3.782 6.55 5.2 10.021l-37.521 0c-2.26-5.059-5.141-9.626-8.641-13.703-9.911-11.506-24.608-17.26-44.093-17.26h-14.728l0 30.963-34.75 0z" fill="#000000" fill-rule="nonzero" stroke="none" stroke-width="1" stroke-linecap="butt" stroke-linejoin="miter" stroke-miterlimit="10" stroke-dasharray="" stroke-dashoffset="0" font-family="none" font-weight="none" font-size="none" text-anchor="none" style="mix-blend-mode: normal" data-fill-palette-color="tertiary"></path></g></g><g transform="matrix(1,0,0,1,0,101.25296199064033)"><svg viewBox="0 0 395.52 44.694076018719315" height="44.694076018719315" width="395.52"><g><svg viewBox="0 0 395.52 44.694076018719315" height="44.694076018719315" width="395.52"><g><svg viewBox="0 0 395.52 44.694076018719315" height="44.694076018719315" width="395.52"><g><svg viewBox="0 0 395.52 44.694076018719315" height="44.694076018719315" width="395.52"><g><svg viewBox="0 0 395.52 44.694076018719315" height="44.694076018719315" width="395.52"><g><svg viewBox="0 0 395.52 44.694076018719315" height="44.694076018719315" width="395.52"><g transform="matrix(1,0,0,1,0,0)"><svg width="395.52" viewBox="1.5499999523162842 -37.5 438.010009765625 49.5" height="44.694076018719315" data-palette-color="#000000"><path d="M14.3 0L1.55 0 1.55-0.8 4.9-2.4 4.9-17.6 1.7-19.65 1.7-20.25 10.8-23.3 11.4-23.3 11.85-19.6 12.1-19.6Q13.85-21.35 15.5-22.33 17.15-23.3 19.45-23.3L19.45-23.3Q21.9-23.3 23.65-22.25 25.4-21.2 25.95-19.1L25.95-19.1 26.15-19.1Q28.05-21.1 29.78-22.2 31.5-23.3 33.95-23.3L33.95-23.3Q36.9-23.3 38.8-21.75 40.7-20.2 40.7-17.15L40.7-17.15 40.7-2.4 44-0.8 44 0 31.1 0 31.1-0.8 33.65-2.4 33.65-15.1Q33.65-16.85 32.68-17.78 31.7-18.7 30.15-18.7L30.15-18.7Q29.05-18.7 28-18.3 26.95-17.9 26.2-17.15L26.2-17.15 26.2-17.15 26.2-2.4 28.7-0.8 28.7 0 16.7 0 16.7-0.8 19.15-2.4 19.15-15.1Q19.15-16.85 18.18-17.78 17.2-18.7 15.65-18.7L15.65-18.7Q14.75-18.7 13.7-18.35 12.65-18 11.9-17.4L11.9-17.4 11.9-2.4 14.3-0.8 14.3 0ZM55.95 0.5L55.95 0.5Q52.95 0.5 51.02-1.05 49.1-2.6 49.1-5.65L49.1-5.65 49.1-20.4 45.8-22 45.8-22.8 56.15-22.8 56.15-7.7Q56.15-5.95 57.15-5.03 58.15-4.1 59.7-4.1L59.7-4.1Q60.65-4.1 61.7-4.45 62.75-4.8 63.5-5.4L63.5-5.4 63.5-20.4 60.5-22 60.5-22.8 70.55-22.8 70.55-2.35 73.7-0.8 73.7 0 63.5 0 63.5-3.2 63.3-3.2Q61.55-1.45 59.9-0.48 58.25 0.5 55.95 0.5ZM89 0L76.1 0 76.1-0.8 79.45-2.4 79.45-17.6 76.25-19.65 76.25-20.25 85.35-23.3 85.95-23.3 86.4-19.6 86.65-19.6Q88.45-21.35 90.15-22.33 91.85-23.3 94.15-23.3L94.15-23.3Q97.2-23.3 99.12-21.75 101.05-20.2 101.05-17.15L101.05-17.15 101.05-2.4 104.4-0.8 104.4 0 91.5 0 91.5-0.8 94-2.4 94-15.1Q94-16.85 92.97-17.78 91.95-18.7 90.4-18.7L90.4-18.7Q89.45-18.7 88.32-18.35 87.2-18 86.45-17.35L86.45-17.35 86.45-2.4 89-0.8 89 0ZM112.99 0.45L112.99 0.45Q110.54 0.45 108.79-1.03 107.04-2.5 107.14-5.3L107.14-5.3Q107.14-7.1 107.84-8.38 108.54-9.65 110.29-10.6 112.04-11.55 115.19-12.35L115.19-12.35 119.89-13.5 119.89-16.6Q119.89-18.5 118.74-19.65 117.59-20.8 115.79-20.8L115.79-20.8Q114.19-20.8 113.49-20.1 112.79-19.4 112.79-18L112.79-18 112.79-15.7 112.59-15.5 109.29-15.5Q108.54-15.5 108.24-15.85 107.94-16.2 107.94-17.05L107.94-17.05Q107.94-18.15 108.82-19.2 109.69-20.25 111.14-21.15L111.14-21.15Q112.94-22.3 114.52-22.8 116.09-23.3 117.94-23.3L117.94-23.3Q120.39-23.3 122.44-22.65 124.49-22 125.72-20.58 126.94-19.15 126.94-16.9L126.94-16.9 126.94-3.7Q127.74-2.9 129.34-2.9L129.34-2.9 130.79-2.9 130.94-2.75 130.94-2.05Q130.39-1.1 129.07-0.3 127.74 0.5 125.64 0.5L125.64 0.5Q123.54 0.5 122.22-0.38 120.89-1.25 120.19-2.9L120.19-2.9 119.89-2.9Q118.64-1.5 116.89-0.53 115.14 0.45 112.99 0.45ZM113.74-6.7L113.74-6.7Q113.74-5.1 114.62-4.33 115.49-3.55 117.04-3.55L117.04-3.55Q118.39-3.55 119.89-4.15L119.89-4.15 119.89-11.5Q117.39-10.95 116.07-10.3 114.74-9.65 114.24-8.8 113.74-7.95 113.74-6.7ZM141.59 0.5L141.59 0.5Q139.14 0.5 137.32 0.03 135.49-0.45 133.74-1.3L133.74-1.3 133.74-7.1 134.49-7.1 136.24-4.5Q138.09-1.7 141.39-1.7L141.39-1.7Q145.29-1.7 145.29-4.55L145.29-4.55Q145.29-5.6 144.74-6.25 144.19-6.9 142.97-7.5 141.74-8.1 139.59-9L139.59-9Q136.79-10.15 135.44-11.7 134.09-13.25 134.09-15.55L134.09-15.55Q134.09-17.7 135.22-19.45 136.34-21.2 138.29-22.25 140.24-23.3 142.69-23.3L142.69-23.3Q144.39-23.3 146.02-22.95 147.64-22.6 149.19-21.8L149.19-21.8 149.19-15.85 148.44-15.85 146.89-18.2Q145.94-19.65 144.94-20.35 143.94-21.05 142.54-21.05L142.54-21.05Q141.04-21.05 140.12-20.3 139.19-19.55 139.19-18.2L139.19-18.2Q139.19-17.3 139.62-16.68 140.04-16.05 141.14-15.45 142.24-14.85 144.29-14.05L144.29-14.05Q145.69-13.5 147.07-12.78 148.44-12.05 149.37-10.73 150.29-9.4 150.29-7.05L150.29-7.05Q150.29-4.7 149.04-3 147.79-1.3 145.82-0.4 143.84 0.5 141.59 0.5ZM165.69 0.5L165.69 0.5Q162.49 0.5 160.04-0.85 157.59-2.2 156.24-4.65 154.89-7.1 154.89-10.35L154.89-10.35Q154.89-14.15 156.46-17.07 158.04-20 160.86-21.65 163.69-23.3 167.44-23.3L167.44-23.3Q169.79-23.3 171.69-22.65 173.59-22 174.54-20.85L174.54-20.85Q175.34-19.9 175.34-19.35L175.34-19.35Q175.34-18.75 174.69-18.15L174.69-18.15 172.34-16.15 171.99-16.15 170.24-18.6Q169.39-19.75 168.54-20.43 167.69-21.1 166.29-21.1L166.29-21.1Q163.99-21.1 162.81-18.82 161.64-16.55 161.64-12.75L161.64-12.75Q161.64-10.6 162.39-8.8 163.14-7 164.76-5.95 166.39-4.9 168.99-4.9L168.99-4.9Q170.39-4.9 171.99-5.25 173.59-5.6 175.29-6.45L175.29-6.45 175.44-6.45 175.44-5.65Q174.19-3 171.66-1.25 169.14 0.5 165.69 0.5ZM184.74 0.45L184.74 0.45Q182.29 0.45 180.54-1.03 178.79-2.5 178.89-5.3L178.89-5.3Q178.89-7.1 179.59-8.38 180.29-9.65 182.04-10.6 183.79-11.55 186.94-12.35L186.94-12.35 191.64-13.5 191.64-16.6Q191.64-18.5 190.49-19.65 189.34-20.8 187.54-20.8L187.54-20.8Q185.94-20.8 185.24-20.1 184.54-19.4 184.54-18L184.54-18 184.54-15.7 184.34-15.5 181.04-15.5Q180.29-15.5 179.99-15.85 179.69-16.2 179.69-17.05L179.69-17.05Q179.69-18.15 180.56-19.2 181.44-20.25 182.89-21.15L182.89-21.15Q184.69-22.3 186.26-22.8 187.84-23.3 189.69-23.3L189.69-23.3Q192.14-23.3 194.19-22.65 196.24-22 197.46-20.58 198.69-19.15 198.69-16.9L198.69-16.9 198.69-3.7Q199.49-2.9 201.09-2.9L201.09-2.9 202.54-2.9 202.69-2.75 202.69-2.05Q202.14-1.1 200.81-0.3 199.49 0.5 197.39 0.5L197.39 0.5Q195.29 0.5 193.96-0.38 192.64-1.25 191.94-2.9L191.94-2.9 191.64-2.9Q190.39-1.5 188.64-0.53 186.89 0.45 184.74 0.45ZM185.49-6.7L185.49-6.7Q185.49-5.1 186.36-4.33 187.24-3.55 188.79-3.55L188.79-3.55Q190.14-3.55 191.64-4.15L191.64-4.15 191.64-11.5Q189.14-10.95 187.81-10.3 186.49-9.65 185.99-8.8 185.49-7.95 185.49-6.7ZM218.68 11.5L204.43 11.5 204.43 10.7 207.78 9.1 207.78-17.3 204.58-19.65 204.58-20.25 213.68-23.3 214.28-23.3 214.68-20.25 214.98-20.25Q216.83-21.85 218.56-22.58 220.28-23.3 222.28-23.3L222.28-23.3Q224.48-23.3 226.41-21.98 228.33-20.65 229.48-18.2 230.63-15.75 230.63-12.35L230.63-12.35Q230.63-8.35 229.03-5.48 227.43-2.6 224.78-1.05 222.13 0.5 219.03 0.5L219.03 0.5Q217.88 0.5 216.81 0.4 215.73 0.3 214.78 0L214.78 0 214.78 9.1 218.68 10.7 218.68 11.5ZM218.13-19.2L218.13-19.2Q217.23-19.2 216.46-18.95 215.68-18.7 214.78-18.2L214.78-18.2 214.78-3.75Q216.23-2.1 218.73-2.1L218.73-2.1Q219.93-2.1 221.06-2.85 222.18-3.6 222.91-5.5 223.63-7.4 223.63-10.9L223.63-10.9Q223.63-15.2 221.93-17.2 220.23-19.2 218.13-19.2ZM245.33 0.5L245.33 0.5Q240.18 0.5 237.21-2.48 234.23-5.45 234.23-10.35L234.23-10.35Q234.23-14.15 235.88-17.07 237.53-20 240.33-21.65 243.13-23.3 246.58-23.3L246.58-23.3Q250.63-23.3 252.88-20.6 255.13-17.9 255.18-12.95L255.18-12.95 254.98-12.7 240.98-12.7 240.98-12.45Q240.98-10.35 241.78-8.63 242.58-6.9 244.31-5.9 246.03-4.9 248.78-4.9L248.78-4.9Q250.23-4.9 251.81-5.25 253.38-5.6 255.08-6.45L255.08-6.45 255.23-6.45 255.23-5.65Q253.98-3 251.41-1.25 248.83 0.5 245.33 0.5ZM245.43-21.05L245.43-21.05Q243.68-21.05 242.56-19.45 241.43-17.85 241.13-14.95L241.13-14.95 249.58-14.95Q249.23-18.4 248.16-19.73 247.08-21.05 245.43-21.05ZM279.63 0.5L279.63 0.5Q277.43 0.5 275.5-0.75 273.58-2 272.4-4.3 271.23-6.6 271.23-9.75L271.23-9.75Q271.23-13.9 272.73-16.95 274.23-20 276.88-21.65 279.53-23.3 282.98-23.3L282.98-23.3Q285.38-23.3 287.13-22.85L287.13-22.85 287.13-31.8 283.68-34.2 283.68-34.75 293.53-37.5 294.13-37.5 294.13-2.25 297.63-0.8 297.63 0 287.63 0 287.23-2.5 286.88-2.5Q285.03-0.9 283.33-0.2 281.63 0.5 279.63 0.5ZM278.28-11.3L278.28-11.3Q278.28-7.3 279.98-5.45 281.68-3.6 283.78-3.6L283.78-3.6Q284.68-3.6 285.45-3.85 286.23-4.1 287.13-4.6L287.13-4.6 287.13-19.1Q286.48-19.85 285.63-20.25 284.78-20.65 283.73-20.65L283.73-20.65Q282.28-20.65 281.03-19.85 279.78-19.05 279.03-17.03 278.28-15 278.28-11.3ZM307.17-28.25L307.17-28.25Q305.57-28.25 304.55-29.28 303.52-30.3 303.52-31.85L303.52-31.85Q303.52-33.45 304.55-34.48 305.57-35.5 307.17-35.5L307.17-35.5Q308.77-35.5 309.8-34.48 310.82-33.45 310.82-31.85L310.82-31.85Q310.82-30.3 309.8-29.28 308.77-28.25 307.17-28.25ZM313.77 0L300.42 0 300.42-0.8 303.77-2.4 303.77-17.6 300.57-19.95 300.57-20.55 310.22-23.3 310.82-23.3 310.82-2.4 313.77-0.8 313.77 0ZM328.27-7.6L328.27-7.6Q325.92-7.6 323.92-8.4L323.92-8.4Q322.82-7.7 322.82-6.45L322.82-6.45Q322.82-4.05 326.67-4.05L326.67-4.05 332.17-4.05Q336.12-4.05 337.97-2.33 339.82-0.6 339.82 2.75L339.82 2.75Q339.82 5.05 338.22 7.18 336.62 9.3 333.69 10.65 330.77 12 326.72 12L326.72 12Q321.87 12 319.77 10.48 317.67 8.95 317.67 6.65L317.67 6.65Q317.67 5.75 317.9 5.03 318.12 4.3 318.57 3.55L318.57 3.55 321.72 1.55 321.72 1.3Q317.87 0.05 317.87-3.65L317.87-3.65Q317.87-5.95 319.27-7.4L319.27-7.4 322.12-9.05 322.12-9.35Q320.52-10.4 319.6-11.98 318.67-13.55 318.67-15.45L318.67-15.45Q318.67-17.7 319.94-19.45 321.22-21.2 323.37-22.23 325.52-23.25 328.27-23.25L328.27-23.25Q329.72-23.25 331.12-22.95 332.52-22.65 333.32-22.25L333.32-22.25 341.02-22.75 341.02-19.75 336.02-20.15 335.82-19.95Q336.72-19.15 337.27-17.95 337.82-16.75 337.82-15.45L337.82-15.45Q337.82-13.2 336.57-11.43 335.32-9.65 333.15-8.63 330.97-7.6 328.27-7.6ZM328.62-9.75L328.62-9.75Q330.22-9.75 331.05-11.28 331.87-12.8 331.87-15.3L331.87-15.3Q331.87-18.15 330.82-19.68 329.77-21.2 328.12-21.2L328.12-21.2Q326.42-21.2 325.57-19.65 324.72-18.1 324.72-15.6L324.72-15.6Q324.72-12.75 325.77-11.25 326.82-9.75 328.62-9.75ZM321.92 5.7L321.92 5.7Q321.92 7.65 323.27 8.93 324.62 10.2 327.22 10.2L327.22 10.2Q330.42 10.2 332.27 8.72 334.12 7.25 334.12 5.25L334.12 5.25Q334.12 3.35 333.12 2.6 332.12 1.85 329.62 1.85L329.62 1.85 325.32 1.85Q324.57 1.85 323.87 1.8L323.87 1.8Q321.92 3.05 321.92 5.7ZM350.87-28.25L350.87-28.25Q349.27-28.25 348.24-29.28 347.22-30.3 347.22-31.85L347.22-31.85Q347.22-33.45 348.24-34.48 349.27-35.5 350.87-35.5L350.87-35.5Q352.47-35.5 353.49-34.48 354.52-33.45 354.52-31.85L354.52-31.85Q354.52-30.3 353.49-29.28 352.47-28.25 350.87-28.25ZM357.47 0L344.12 0 344.12-0.8 347.47-2.4 347.47-17.6 344.27-19.95 344.27-20.55 353.92-23.3 354.52-23.3 354.52-2.4 357.47-0.8 357.47 0ZM370.17 0.5L370.17 0.5Q367.12 0.5 365.17-0.8 363.22-2.1 363.22-4.45L363.22-4.45 363.22-20.55 359.62-20.55 359.62-21.25 364.22-22.8 369.26-28.3 370.22-28.3 370.22-22.8 377.17-22.8 377.17-20.55 370.22-20.55 370.22-5.7Q370.22-4.4 371.31-3.8 372.42-3.2 373.92-3.2L373.92-3.2Q374.87-3.2 375.59-3.33 376.31-3.45 377.01-3.6L377.01-3.6 377.17-3.5 377.17-2.65Q376.31-1.45 374.42-0.48 372.51 0.5 370.17 0.5ZM385.96 0.45L385.96 0.45Q383.51 0.45 381.76-1.03 380.01-2.5 380.11-5.3L380.11-5.3Q380.11-7.1 380.81-8.38 381.51-9.65 383.26-10.6 385.01-11.55 388.16-12.35L388.16-12.35 392.86-13.5 392.86-16.6Q392.86-18.5 391.71-19.65 390.56-20.8 388.76-20.8L388.76-20.8Q387.16-20.8 386.46-20.1 385.76-19.4 385.76-18L385.76-18 385.76-15.7 385.56-15.5 382.26-15.5Q381.51-15.5 381.21-15.85 380.91-16.2 380.91-17.05L380.91-17.05Q380.91-18.15 381.79-19.2 382.66-20.25 384.11-21.15L384.11-21.15Q385.91-22.3 387.49-22.8 389.06-23.3 390.91-23.3L390.91-23.3Q393.36-23.3 395.41-22.65 397.46-22 398.69-20.58 399.91-19.15 399.91-16.9L399.91-16.9 399.91-3.7Q400.71-2.9 402.31-2.9L402.31-2.9 403.76-2.9 403.91-2.75 403.91-2.05Q403.36-1.1 402.04-0.3 400.71 0.5 398.61 0.5L398.61 0.5Q396.51 0.5 395.19-0.38 393.86-1.25 393.16-2.9L393.16-2.9 392.86-2.9Q391.61-1.5 389.86-0.53 388.11 0.45 385.96 0.45ZM386.71-6.7L386.71-6.7Q386.71-5.1 387.59-4.33 388.46-3.55 390.01-3.55L390.01-3.55Q391.36-3.55 392.86-4.15L392.86-4.15 392.86-11.5Q390.36-10.95 389.04-10.3 387.71-9.65 387.21-8.8 386.71-7.95 386.71-6.7ZM418.91 0L405.56 0 405.56-0.8 408.91-2.4 408.91-31.8 405.71-34.15 405.71-34.75 415.36-37.5 415.96-37.5 415.96-2.4 418.91-0.8 418.91 0ZM430.86 0.5L430.86 0.5Q428.41 0.5 426.58 0.03 424.76-0.45 423.01-1.3L423.01-1.3 423.01-7.1 423.76-7.1 425.51-4.5Q427.36-1.7 430.66-1.7L430.66-1.7Q434.56-1.7 434.56-4.55L434.56-4.55Q434.56-5.6 434.01-6.25 433.46-6.9 432.23-7.5 431.01-8.1 428.86-9L428.86-9Q426.06-10.15 424.71-11.7 423.36-13.25 423.36-15.55L423.36-15.55Q423.36-17.7 424.48-19.45 425.61-21.2 427.56-22.25 429.51-23.3 431.96-23.3L431.96-23.3Q433.66-23.3 435.28-22.95 436.91-22.6 438.46-21.8L438.46-21.8 438.46-15.85 437.71-15.85 436.16-18.2Q435.21-19.65 434.21-20.35 433.21-21.05 431.81-21.05L431.81-21.05Q430.31-21.05 429.38-20.3 428.46-19.55 428.46-18.2L428.46-18.2Q428.46-17.3 428.88-16.68 429.31-16.05 430.41-15.45 431.51-14.85 433.56-14.05L433.56-14.05Q434.96-13.5 436.33-12.78 437.71-12.05 438.63-10.73 439.56-9.4 439.56-7.05L439.56-7.05Q439.56-4.7 438.31-3 437.06-1.3 435.08-0.4 433.11 0.5 430.86 0.5Z" opacity="1" transform="matrix(1,0,0,1,0,0)" fill="#000000" class="undefined-text-0" data-fill-palette-color="primary" id="text-0"></path></svg></g></svg></g></svg></g></svg></g><g></g></svg></g></svg></g></svg></g></svg></g><defs></defs></svg><rect width="395.52" height="247.2" fill="none" stroke="none" visibility="hidden"></rect></g></svg></g></svg>